<svg width="25" height="18" viewBox="0 0 25 18" fill="none" xmlns="http://www.w3.org/2000/svg">
<g id="Group 26840">
<g id="Group 26970">
<g id="Group 26978">
<path id="Vector" d="M20.9978 13.0263C23.5755 10.9648 25 8.62895 25 8.62895C25 8.62895 20.4538 1.15976 12.8767 1.15976C11.4213 1.16425 9.98233 1.43602 8.64868 1.95828L9.81555 3.00533C10.7967 2.68504 11.8325 2.52007 12.8767 2.51779C16.0894 2.51779 18.755 4.10398 20.7084 5.85448C21.6484 6.70148 22.4912 7.63097 23.2239 8.62895C23.1361 8.7471 23.0391 8.87747 22.9284 9.02006C22.4208 9.67192 21.6706 10.5411 20.7084 11.4034C20.4583 11.6275 20.1977 11.8488 19.9249 12.0634L20.9978 13.0263Z" fill="#E6E6E6"/>
<path id="Vector_2" d="M17.8731 10.226C18.2113 9.37835 18.2739 8.4621 18.0537 7.58382C17.8335 6.70554 17.3395 5.90136 16.6292 5.26484C15.9189 4.62832 15.0216 4.18564 14.0415 3.9883C13.0614 3.79096 12.039 3.84709 11.0931 4.15014L12.3403 5.2678C12.9227 5.1931 13.5165 5.24097 14.0747 5.40763C14.6328 5.57428 15.14 5.85514 15.556 6.22794C15.972 6.60075 16.2854 7.05525 16.4714 7.55545C16.6574 8.05564 16.7108 8.58777 16.6274 9.10968L17.8731 10.226ZM13.4132 11.9901L14.6589 13.1064C13.7131 13.4094 12.6906 13.4655 11.7106 13.2682C10.7305 13.0709 9.83311 12.6282 9.12283 11.9917C8.41254 11.3552 7.91856 10.551 7.69835 9.67269C7.47815 8.79441 7.54077 7.87816 7.87895 7.03053L9.12613 8.14819C9.04277 8.6701 9.0962 9.20223 9.28217 9.70242C9.46813 10.2026 9.78154 10.6571 10.1975 11.0299C10.6136 11.4027 11.1207 11.6836 11.6789 11.8502C12.2371 12.0169 12.8309 12.0648 13.4132 11.9901Z" fill="#E6E6E6"/>
<path id="Vector_3" d="M5.83 5.19312C5.55722 5.41041 5.29506 5.63041 5.04501 5.85449C4.10492 6.70148 3.26216 7.63097 2.52942 8.62895L2.82493 9.02006C3.33259 9.67192 4.08272 10.5411 5.04501 11.4034C6.99838 13.1539 9.66551 14.7401 12.8767 14.7401C13.9617 14.7401 14.9831 14.5595 15.9378 14.2512L17.1047 15.2996C15.771 15.8218 14.3321 16.0936 12.8767 16.0981C5.2996 16.0981 0.753357 8.62895 0.753357 8.62895C0.753357 8.62895 2.17633 6.29177 4.75557 4.23163L5.82848 5.19448L5.83 5.19312ZM21.4327 17.2579L3.24773 0.961488L4.32064 0L22.5056 16.2964L21.4327 17.2579Z" fill="#E6E6E6"/>
</g>
</g>
</g>
</svg>
